<svg width="877" height="6" viewBox="0 0 877 6" fill="none" xmlns="http://www.w3.org/2000/svg">
<path d="M3.184 5.952C2.384 5.952 1.76 5.728 1.312 5.28C0.896 4.832 0.688 4.208 0.688 3.408V2.544C0.688 1.744 0.896 1.12 1.312 0.672C1.76 0.224 2.384 0 3.184 0H3.712C4.512 0 5.12 0.224 5.536 0.672C5.952 1.12 6.16 1.744 6.16 2.544V3.408C6.16 4.208 5.952 4.832 5.536 5.28C5.12 5.728 4.512 5.952 3.712 5.952H3.184ZM27.3715 5.952C26.5715 5.952 25.9475 5.728 25.4995 5.28C25.0835 4.832 24.8755 4.208 24.8755 3.408V2.544C24.8755 1.744 25.0835 1.12 25.4995 0.672C25.9475 0.224 26.5715 0 27.3715 0H27.8995C28.6995 0 29.3075 0.224 29.7235 0.672C30.1395 1.12 30.3475 1.744 30.3475 2.544V3.408C30.3475 4.208 30.1395 4.832 29.7235 5.28C29.3075 5.728 28.6995 5.952 27.8995 5.952H27.3715ZM51.559 5.952C50.759 5.952 50.135 5.728 49.687 5.28C49.271 4.832 49.063 4.208 49.063 3.408V2.544C49.063 1.744 49.271 1.12 49.687 0.672C50.135 0.224 50.759 0 51.559 0H52.087C52.887 0 53.495 0.224 53.911 0.672C54.327 1.12 54.535 1.744 54.535 2.544V3.408C54.535 4.208 54.327 4.832 53.911 5.28C53.495 5.728 52.887 5.952 52.087 5.952H51.559ZM75.7465 5.952C74.9465 5.952 74.3225 5.728 73.8745 5.28C73.4585 4.832 73.2505 4.208 73.2505 3.408V2.544C73.2505 1.744 73.4585 1.12 73.8745 0.672C74.3225 0.224 74.9465 0 75.7465 0H76.2745C77.0745 0 77.6825 0.224 78.0985 0.672C78.5145 1.12 78.7225 1.744 78.7225 2.544V3.408C78.7225 4.208 78.5145 4.832 78.0985 5.28C77.6825 5.728 77.0745 5.952 76.2745 5.952H75.7465ZM99.934 5.952C99.134 5.952 98.51 5.728 98.062 5.28C97.646 4.832 97.438 4.208 97.438 3.408V2.544C97.438 1.744 97.646 1.12 98.062 0.672C98.51 0.224 99.134 0 99.934 0H100.462C101.262 0 101.87 0.224 102.286 0.672C102.702 1.12 102.91 1.744 102.91 2.544V3.408C102.91 4.208 102.702 4.832 102.286 5.28C101.87 5.728 101.262 5.952 100.462 5.952H99.934ZM124.122 5.952C123.322 5.952 122.698 5.728 122.25 5.28C121.834 4.832 121.626 4.208 121.626 3.408V2.544C121.626 1.744 121.834 1.12 122.25 0.672C122.698 0.224 123.322 0 124.122 0H124.65C125.45 0 126.058 0.224 126.474 0.672C126.89 1.12 127.098 1.744 127.098 2.544V3.408C127.098 4.208 126.89 4.832 126.474 5.28C126.058 5.728 125.45 5.952 124.65 5.952H124.122ZM148.309 5.952C147.509 5.952 146.885 5.728 146.437 5.28C146.021 4.832 145.813 4.208 145.813 3.408V2.544C145.813 1.744 146.021 1.12 146.437 0.672C146.885 0.224 147.509 0 148.309 0H148.837C149.637 0 150.245 0.224 150.661 0.672C151.077 1.12 151.285 1.744 151.285 2.544V3.408C151.285 4.208 151.077 4.832 150.661 5.28C150.245 5.728 149.637 5.952 148.837 5.952H148.309ZM172.497 5.952C171.697 5.952 171.073 5.728 170.625 5.28C170.209 4.832 170.001 4.208 170.001 3.408V2.544C170.001 1.744 170.209 1.12 170.625 0.672C171.073 0.224 171.697 0 172.497 0H173.025C173.825 0 174.433 0.224 174.849 0.672C175.265 1.12 175.473 1.744 175.473 2.544V3.408C175.473 4.208 175.265 4.832 174.849 5.28C174.433 5.728 173.825 5.952 173.025 5.952H172.497ZM196.684 5.952C195.884 5.952 195.26 5.728 194.812 5.28C194.396 4.832 194.188 4.208 194.188 3.408V2.544C194.188 1.744 194.396 1.12 194.812 0.672C195.26 0.224 195.884 0 196.684 0H197.212C198.012 0 198.62 0.224 199.036 0.672C199.452 1.12 199.66 1.744 199.66 2.544V3.408C199.66 4.208 199.452 4.832 199.036 5.28C198.62 5.728 198.012 5.952 197.212 5.952H196.684ZM220.872 5.952C220.072 5.952 219.448 5.728 219 5.28C218.584 4.832 218.376 4.208 218.376 3.408V2.544C218.376 1.744 218.584 1.12 219 0.672C219.448 0.224 220.072 0 220.872 0H221.4C222.2 0 222.808 0.224 223.224 0.672C223.64 1.12 223.848 1.744 223.848 2.544V3.408C223.848 4.208 223.64 4.832 223.224 5.28C222.808 5.728 222.2 5.952 221.4 5.952H220.872ZM245.059 5.952C244.259 5.952 243.635 5.728 243.187 5.28C242.771 4.832 242.563 4.208 242.563 3.408V2.544C242.563 1.744 242.771 1.12 243.187 0.672C243.635 0.224 244.259 0 245.059 0H245.587C246.387 0 246.995 0.224 247.411 0.672C247.827 1.12 248.035 1.744 248.035 2.544V3.408C248.035 4.208 247.827 4.832 247.411 5.28C246.995 5.728 246.387 5.952 245.587 5.952H245.059ZM269.247 5.952C268.447 5.952 267.823 5.728 267.375 5.28C266.959 4.832 266.751 4.208 266.751 3.408V2.544C266.751 1.744 266.959 1.12 267.375 0.672C267.823 0.224 268.447 0 269.247 0H269.775C270.575 0 271.183 0.224 271.599 0.672C272.015 1.12 272.223 1.744 272.223 2.544V3.408C272.223 4.208 272.015 4.832 271.599 5.28C271.183 5.728 270.575 5.952 269.775 5.952H269.247ZM293.434 5.952C292.634 5.952 292.01 5.728 291.562 5.28C291.146 4.832 290.938 4.208 290.938 3.408V2.544C290.938 1.744 291.146 1.12 291.562 0.672C292.01 0.224 292.634 0 293.434 0H293.962C294.762 0 295.37 0.224 295.786 0.672C296.202 1.12 296.41 1.744 296.41 2.544V3.408C296.41 4.208 296.202 4.832 295.786 5.28C295.37 5.728 294.762 5.952 293.962 5.952H293.434ZM317.622 5.952C316.822 5.952 316.198 5.728 315.75 5.28C315.334 4.832 315.126 4.208 315.126 3.408V2.544C315.126 1.744 315.334 1.12 315.75 0.672C316.198 0.224 316.822 0 317.622 0H318.15C318.95 0 319.558 0.224 319.974 0.672C320.39 1.12 320.598 1.744 320.598 2.544V3.408C320.598 4.208 320.39 4.832 319.974 5.28C319.558 5.728 318.95 5.952 318.15 5.952H317.622ZM341.809 5.952C341.009 5.952 340.385 5.728 339.937 5.28C339.521 4.832 339.313 4.208 339.313 3.408V2.544C339.313 1.744 339.521 1.12 339.937 0.672C340.385 0.224 341.009 0 341.809 0H342.337C343.137 0 343.745 0.224 344.161 0.672C344.577 1.12 344.785 1.744 344.785 2.544V3.408C344.785 4.208 344.577 4.832 344.161 5.28C343.745 5.728 343.137 5.952 342.337 5.952H341.809ZM365.997 5.952C365.197 5.952 364.573 5.728 364.125 5.28C363.709 4.832 363.501 4.208 363.501 3.408V2.544C363.501 1.744 363.709 1.12 364.125 0.672C364.573 0.224 365.197 0 365.997 0H366.525C367.325 0 367.933 0.224 368.349 0.672C368.765 1.12 368.973 1.744 368.973 2.544V3.408C368.973 4.208 368.765 4.832 368.349 5.28C367.933 5.728 367.325 5.952 366.525 5.952H365.997ZM390.184 5.952C389.384 5.952 388.76 5.728 388.312 5.28C387.896 4.832 387.688 4.208 387.688 3.408V2.544C387.688 1.744 387.896 1.12 388.312 0.672C388.76 0.224 389.384 0 390.184 0H390.712C391.512 0 392.12 0.224 392.536 0.672C392.952 1.12 393.16 1.744 393.16 2.544V3.408C393.16 4.208 392.952 4.832 392.536 5.28C392.12 5.728 391.512 5.952 390.712 5.952H390.184ZM414.372 5.952C413.572 5.952 412.948 5.728 412.5 5.28C412.084 4.832 411.876 4.208 411.876 3.408V2.544C411.876 1.744 412.084 1.12 412.5 0.672C412.948 0.224 413.572 0 414.372 0H414.9C415.7 0 416.308 0.224 416.724 0.672C417.14 1.12 417.348 1.744 417.348 2.544V3.408C417.348 4.208 417.14 4.832 416.724 5.28C416.308 5.728 415.7 5.952 414.9 5.952H414.372ZM438.559 5.952C437.759 5.952 437.135 5.728 436.687 5.28C436.271 4.832 436.063 4.208 436.063 3.408V2.544C436.063 1.744 436.271 1.12 436.687 0.672C437.135 0.224 437.759 0 438.559 0H439.087C439.887 0 440.495 0.224 440.911 0.672C441.327 1.12 441.535 1.744 441.535 2.544V3.408C441.535 4.208 441.327 4.832 440.911 5.28C440.495 5.728 439.887 5.952 439.087 5.952H438.559ZM462.747 5.952C461.947 5.952 461.323 5.728 460.875 5.28C460.459 4.832 460.251 4.208 460.251 3.408V2.544C460.251 1.744 460.459 1.12 460.875 0.672C461.323 0.224 461.947 0 462.747 0H463.275C464.075 0 464.683 0.224 465.099 0.672C465.515 1.12 465.723 1.744 465.723 2.544V3.408C465.723 4.208 465.515 4.832 465.099 5.28C464.683 5.728 464.075 5.952 463.275 5.952H462.747ZM486.934 5.952C486.134 5.952 485.51 5.728 485.062 5.28C484.646 4.832 484.438 4.208 484.438 3.408V2.544C484.438 1.744 484.646 1.12 485.062 0.672C485.51 0.224 486.134 0 486.934 0H487.462C488.262 0 488.87 0.224 489.286 0.672C489.702 1.12 489.91 1.744 489.91 2.544V3.408C489.91 4.208 489.702 4.832 489.286 5.28C488.87 5.728 488.262 5.952 487.462 5.952H486.934ZM511.122 5.952C510.322 5.952 509.698 5.728 509.25 5.28C508.834 4.832 508.626 4.208 508.626 3.408V2.544C508.626 1.744 508.834 1.12 509.25 0.672C509.698 0.224 510.322 0 511.122 0H511.65C512.45 0 513.058 0.224 513.474 0.672C513.89 1.12 514.098 1.744 514.098 2.544V3.408C514.098 4.208 513.89 4.832 513.474 5.28C513.058 5.728 512.45 5.952 511.65 5.952H511.122ZM535.309 5.952C534.509 5.952 533.885 5.728 533.437 5.28C533.021 4.832 532.813 4.208 532.813 3.408V2.544C532.813 1.744 533.021 1.12 533.437 0.672C533.885 0.224 534.509 0 535.309 0H535.837C536.637 0 537.245 0.224 537.661 0.672C538.077 1.12 538.285 1.744 538.285 2.544V3.408C538.285 4.208 538.077 4.832 537.661 5.28C537.245 5.728 536.637 5.952 535.837 5.952H535.309ZM559.497 5.952C558.697 5.952 558.073 5.728 557.625 5.28C557.209 4.832 557.001 4.208 557.001 3.408V2.544C557.001 1.744 557.209 1.12 557.625 0.672C558.073 0.224 558.697 0 559.497 0H560.025C560.825 0 561.433 0.224 561.849 0.672C562.265 1.12 562.473 1.744 562.473 2.544V3.408C562.473 4.208 562.265 4.832 561.849 5.28C561.433 5.728 560.825 5.952 560.025 5.952H559.497ZM583.684 5.952C582.884 5.952 582.26 5.728 581.812 5.28C581.396 4.832 581.188 4.208 581.188 3.408V2.544C581.188 1.744 581.396 1.12 581.812 0.672C582.26 0.224 582.884 0 583.684 0H584.212C585.012 0 585.62 0.224 586.036 0.672C586.452 1.12 586.66 1.744 586.66 2.544V3.408C586.66 4.208 586.452 4.832 586.036 5.28C585.62 5.728 585.012 5.952 584.212 5.952H583.684ZM607.872 5.952C607.072 5.952 606.448 5.728 606 5.28C605.584 4.832 605.376 4.208 605.376 3.408V2.544C605.376 1.744 605.584 1.12 606 0.672C606.448 0.224 607.072 0 607.872 0H608.4C609.2 0 609.808 0.224 610.224 0.672C610.64 1.12 610.848 1.744 610.848 2.544V3.408C610.848 4.208 610.64 4.832 610.224 5.28C609.808 5.728 609.2 5.952 608.4 5.952H607.872ZM632.059 5.952C631.259 5.952 630.635 5.728 630.187 5.28C629.771 4.832 629.563 4.208 629.563 3.408V2.544C629.563 1.744 629.771 1.12 630.187 0.672C630.635 0.224 631.259 0 632.059 0H632.587C633.387 0 633.995 0.224 634.411 0.672C634.827 1.12 635.035 1.744 635.035 2.544V3.408C635.035 4.208 634.827 4.832 634.411 5.28C633.995 5.728 633.387 5.952 632.587 5.952H632.059ZM656.247 5.952C655.447 5.952 654.823 5.728 654.375 5.28C653.959 4.832 653.751 4.208 653.751 3.408V2.544C653.751 1.744 653.959 1.12 654.375 0.672C654.823 0.224 655.447 0 656.247 0H656.775C657.575 0 658.183 0.224 658.599 0.672C659.015 1.12 659.223 1.744 659.223 2.544V3.408C659.223 4.208 659.015 4.832 658.599 5.28C658.183 5.728 657.575 5.952 656.775 5.952H656.247ZM680.434 5.952C679.634 5.952 679.01 5.728 678.562 5.28C678.146 4.832 677.938 4.208 677.938 3.408V2.544C677.938 1.744 678.146 1.12 678.562 0.672C679.01 0.224 679.634 0 680.434 0H680.962C681.762 0 682.37 0.224 682.786 0.672C683.202 1.12 683.41 1.744 683.41 2.544V3.408C683.41 4.208 683.202 4.832 682.786 5.28C682.37 5.728 681.762 5.952 680.962 5.952H680.434ZM704.622 5.952C703.822 5.952 703.198 5.728 702.75 5.28C702.334 4.832 702.126 4.208 702.126 3.408V2.544C702.126 1.744 702.334 1.12 702.75 0.672C703.198 0.224 703.822 0 704.622 0H705.15C705.95 0 706.558 0.224 706.974 0.672C707.39 1.12 707.598 1.744 707.598 2.544V3.408C707.598 4.208 707.39 4.832 706.974 5.28C706.558 5.728 705.95 5.952 705.15 5.952H704.622ZM728.809 5.952C728.009 5.952 727.385 5.728 726.937 5.28C726.521 4.832 726.313 4.208 726.313 3.408V2.544C726.313 1.744 726.521 1.12 726.937 0.672C727.385 0.224 728.009 0 728.809 0H729.337C730.137 0 730.745 0.224 731.161 0.672C731.577 1.12 731.785 1.744 731.785 2.544V3.408C731.785 4.208 731.577 4.832 731.161 5.28C730.745 5.728 730.137 5.952 729.337 5.952H728.809ZM752.997 5.952C752.197 5.952 751.573 5.728 751.125 5.28C750.709 4.832 750.501 4.208 750.501 3.408V2.544C750.501 1.744 750.709 1.12 751.125 0.672C751.573 0.224 752.197 0 752.997 0H753.525C754.325 0 754.933 0.224 755.349 0.672C755.765 1.12 755.973 1.744 755.973 2.544V3.408C755.973 4.208 755.765 4.832 755.349 5.28C754.933 5.728 754.325 5.952 753.525 5.952H752.997ZM777.184 5.952C776.384 5.952 775.76 5.728 775.312 5.28C774.896 4.832 774.688 4.208 774.688 3.408V2.544C774.688 1.744 774.896 1.12 775.312 0.672C775.76 0.224 776.384 0 777.184 0H777.712C778.512 0 779.12 0.224 779.536 0.672C779.952 1.12 780.16 1.744 780.16 2.544V3.408C780.16 4.208 779.952 4.832 779.536 5.28C779.12 5.728 778.512 5.952 777.712 5.952H777.184ZM801.372 5.952C800.572 5.952 799.948 5.728 799.5 5.28C799.084 4.832 798.876 4.208 798.876 3.408V2.544C798.876 1.744 799.084 1.12 799.5 0.672C799.948 0.224 800.572 0 801.372 0H801.9C802.7 0 803.308 0.224 803.724 0.672C804.14 1.12 804.348 1.744 804.348 2.544V3.408C804.348 4.208 804.14 4.832 803.724 5.28C803.308 5.728 802.7 5.952 801.9 5.952H801.372ZM825.559 5.952C824.759 5.952 824.135 5.728 823.687 5.28C823.271 4.832 823.063 4.208 823.063 3.408V2.544C823.063 1.744 823.271 1.12 823.687 0.672C824.135 0.224 824.759 0 825.559 0H826.087C826.887 0 827.495 0.224 827.911 0.672C828.327 1.12 828.535 1.744 828.535 2.544V3.408C828.535 4.208 828.327 4.832 827.911 5.28C827.495 5.728 826.887 5.952 826.087 5.952H825.559ZM849.747 5.952C848.947 5.952 848.323 5.728 847.875 5.28C847.459 4.832 847.251 4.208 847.251 3.408V2.544C847.251 1.744 847.459 1.12 847.875 0.672C848.323 0.224 848.947 0 849.747 0H850.275C851.075 0 851.683 0.224 852.099 0.672C852.515 1.12 852.723 1.744 852.723 2.544V3.408C852.723 4.208 852.515 4.832 852.099 5.28C851.683 5.728 851.075 5.952 850.275 5.952H849.747ZM873.934 5.952C873.134 5.952 872.51 5.728 872.062 5.28C871.646 4.832 871.438 4.208 871.438 3.408V2.544C871.438 1.744 871.646 1.12 872.062 0.672C872.51 0.224 873.134 0 873.934 0H874.462C875.262 0 875.87 0.224 876.286 0.672C876.702 1.12 876.91 1.744 876.91 2.544V3.408C876.91 4.208 876.702 4.832 876.286 5.28C875.87 5.728 875.262 5.952 874.462 5.952H873.934Z" fill="white"/>
</svg>
