<svg width="1600" height="86" viewBox="0 0 1600 86" fill="none" xmlns="http://www.w3.org/2000/svg">
<path opacity="0.1" d="M804.995 83L804.503 84.9385L805.006 85.0661L805.507 84.9334L804.995 83ZM1364.3 83L1363.7 84.9097L1364.21 85.0684L1364.73 84.9517L1364.3 83ZM1107.12 3L1107.71 1.09026L1107.16 0.9193L1106.61 1.06663L1107.12 3ZM489.889 3L490.381 1.0615L489.837 0.923452L489.301 1.08833L489.889 3ZM229.714 83L229.263 84.9484C229.606 85.028 229.965 85.0153 230.302 84.9117L229.714 83ZM1364.73 84.9517L1601.44 31.9581L1600.56 28.0547L1363.86 81.0483L1364.73 84.9517ZM805.507 84.9334L1107.63 4.93337L1106.61 1.06663L804.483 81.0666L805.507 84.9334ZM1106.52 4.90974L1363.7 84.9097L1364.89 81.0903L1107.71 1.09026L1106.52 4.90974ZM489.397 4.9385L804.503 84.9385L805.487 81.0615L490.381 1.0615L489.397 4.9385ZM0.548555 31.9548L229.263 84.9484L230.166 81.0516L1.45145 28.058L0.548555 31.9548ZM230.302 84.9117L490.477 4.91167L489.301 1.08833L229.126 81.0883L230.302 84.9117Z" fill="#F5E4DA"/>
</svg>
