<svg width="108" height="136" viewBox="0 0 108 136" fill="none" xmlns="http://www.w3.org/2000/svg">
<path d="M69.7925 2.10341C83.4885 6.30163 94.5464 13.6614 101.674 26.2084C104.047 30.3856 105.47 34.8912 106.454 39.5677C107.271 43.45 104.931 46.4174 100.751 46.3989C69.315 46.2598 37.8786 46.3249 6.44238 46.3209C2.19671 46.3203 0.0727609 43.9111 0.745673 39.7448C2.71257 27.5668 9.22136 18.1487 19.033 11.08C34.375 0.0268695 51.4261 -2.3178 69.7925 2.10341Z" fill="#F98139"/>
<path d="M8.94373 101.59C21.0871 101.59 32.9943 101.626 44.9011 101.576C51.9653 101.546 58.5268 103.178 64.5576 106.928C67.968 109.049 71.4542 111.049 74.9262 113.07C77.7122 114.692 79.6788 114.494 82.0307 112.308C84.7349 109.794 87.383 107.219 90.0557 104.67C93.6518 101.241 98.0353 101.047 102.496 101.981C105.304 102.569 106.727 104.937 106.853 107.623C107.067 112.208 107.029 116.818 106.817 121.405C106.676 124.452 104.902 126.757 102.395 128.451C97.2119 131.952 91.2457 133.069 85.2321 133.973C70.5402 136.18 55.7442 135.595 40.9756 135.424C30.9549 135.308 20.9699 134.624 11.3064 131.583C8.77915 130.788 6.40945 129.699 4.31456 128.071C1.84653 126.154 0.423568 123.685 0.430342 120.482C0.437801 116.951 0.41059 113.42 0.413846 109.888C0.419448 103.8 2.62973 101.594 8.94373 101.59Z" fill="#F98139"/>
<path d="M77.1451 16.4532C79.0668 16.5673 80.5594 17.3256 81.8425 18.4869C82.3692 18.9634 83.0384 19.5486 82.6092 20.3446C82.1376 21.22 81.2674 21.0682 80.4485 20.8337C79.1043 20.4484 77.8867 19.8158 76.8992 18.8298C76.1438 18.0759 75.6565 17.2308 77.1451 16.4532Z" fill="#F5E4DA"/>
<path d="M71.0388 16.8138C72.6742 16.8712 73.8519 17.5757 74.9232 18.4808C75.3908 18.8762 75.6598 19.4254 75.2912 19.9989C74.9902 20.4681 74.4491 20.3611 73.9574 20.304C71.8351 20.0576 70.4697 18.5518 71.0388 16.8138Z" fill="#F5E4DA"/>
<path d="M77.9412 14.9748C77.4061 14.7666 76.9991 14.6716 76.6699 14.4568C75.9056 13.9582 74.6718 13.7085 75.0009 12.4394C75.2256 11.5752 76.0106 11.7782 76.5945 12.1487C77.5992 12.7862 79.2376 12.8326 79.108 14.5787C79.08 14.9581 78.5443 15.0985 77.9412 14.9748Z" fill="#F5E4DA"/>
<path d="M8.78873 69.4821H3.17725C2.32315 69.4821 1.75089 69.422 1.4605 69.3028C1.1701 69.183 1.0249 68.9953 1.0249 68.7391V52.2634C1.0249 51.4434 3.49327 51.0334 8.43 51.0334C11.2657 51.0334 13.2215 51.3064 14.2977 51.8534C15.391 52.4171 16.0913 53.1345 16.3988 54.0057C16.5697 54.5182 16.655 55.1159 16.655 55.7994C16.655 57.1318 16.4244 58.1311 15.9632 58.7973C15.5191 59.4635 15.0323 59.839 14.5027 59.9247C15.3055 60.0952 15.9717 60.4884 16.5013 61.1034C17.0309 61.7183 17.2956 62.76 17.2956 64.2294C17.2956 65.9373 16.7746 67.2017 15.7326 68.0216C14.8273 68.7391 13.4436 69.1914 11.5817 69.3797C10.7959 69.4477 9.8649 69.4821 8.78873 69.4821ZM8.81435 58.3104C9.68554 58.3104 10.1211 57.7295 10.1211 56.5681C10.1211 55.9871 10.0015 55.5599 9.76241 55.2869C9.54033 54.9962 9.28409 54.8513 8.99371 54.8513H8.17377V58.3104H8.81435ZM8.17377 65.6643H8.81435C9.68554 65.6643 10.1211 65.0833 10.1211 63.9219C10.1211 63.341 10.0015 62.9137 9.76241 62.6408C9.54033 62.35 9.28409 62.2052 8.99371 62.2052H8.17377V65.6643ZM35.6438 62.3333C35.6438 64.7931 34.9349 66.638 33.5171 67.8679C32.1164 69.0805 30.075 69.6871 27.3932 69.6871C24.7284 69.6871 22.6785 69.0805 21.2436 67.8679C19.8087 66.638 19.0913 64.7931 19.0913 62.3333V52.9296C19.0913 52.5023 19.5695 52.118 20.5262 51.7765C21.4999 51.4345 22.6273 51.2641 23.9084 51.2641C24.9334 51.2641 25.5996 51.4602 25.907 51.8534C26.1291 52.1609 26.2401 52.4255 26.2401 52.6477V60.2834C26.2401 62.2135 26.3084 63.4947 26.4451 64.1269C26.5989 64.7419 26.9149 65.0493 27.3932 65.0493C27.8714 65.0493 28.1704 64.7502 28.29 64.1525C28.4266 63.5376 28.495 62.2392 28.495 60.2578V52.9296C28.495 52.5023 28.9732 52.118 29.9299 51.7765C30.9036 51.4345 32.0224 51.2641 33.2865 51.2641C34.3627 51.2641 35.0459 51.4602 35.3364 51.8534C35.5414 52.1609 35.6438 52.4255 35.6438 52.6477V62.3333ZM44.8576 68.7391C44.8576 68.9608 44.3366 69.1402 43.2945 69.2772C42.2526 69.4136 41.202 69.4821 40.1429 69.4821C39.1009 69.4821 38.4261 69.422 38.1187 69.3028C37.8283 69.183 37.6831 68.9953 37.6831 68.7391V52.2634C37.6831 51.8189 38.2382 51.503 39.3486 51.3153C40.476 51.1271 41.8938 51.0334 43.602 51.0334C45.3102 51.0334 46.412 51.0418 46.9074 51.0591C47.4199 51.0591 48.0178 51.0847 48.701 51.1359C49.3842 51.1872 49.9223 51.2724 50.3155 51.3922C50.7255 51.5114 51.1695 51.6652 51.6479 51.8534C52.1432 52.0411 52.5275 52.289 52.801 52.5965C53.074 52.8867 53.3391 53.237 53.5953 53.647C54.0565 54.3812 54.2871 55.4318 54.2871 56.7987C54.2871 58.1478 54.0565 59.2925 53.5953 60.2322C53.1508 61.1546 52.5531 61.8548 51.8017 62.3333C53.7658 65.4248 54.7483 67.3894 54.7483 68.2266C54.7483 69.0633 53.0656 69.4821 49.7006 69.4821C48.7267 69.4821 48.0519 69.4393 47.6761 69.354C47.3003 69.2683 47.0611 69.0806 46.9587 68.7903L45.2931 63.5119L44.8576 63.4863V68.7391ZM44.8576 59.5403H45.5238C46.5145 59.5403 47.0099 58.7717 47.0099 57.2343C47.0099 56.4483 46.8733 55.893 46.5999 55.5688C46.3437 55.244 46.0448 55.0819 45.7031 55.0819H44.8576V59.5403ZM61.5848 69.6871C61.0043 69.6871 60.4663 69.627 59.9706 69.5078C59.4753 69.388 58.9545 69.1402 58.4075 68.7647C57.8783 68.3715 57.4255 67.859 57.0495 67.2273C56.1956 65.7924 55.7683 63.6312 55.7683 60.7446C55.7683 59.156 55.9822 57.7551 56.4089 56.5424C56.8361 55.3293 57.3742 54.3901 58.0232 53.7239C58.6726 53.0404 59.4497 52.4851 60.3549 52.0584C61.2606 51.6312 62.1061 51.3577 62.8916 51.2384C63.6775 51.1014 64.5147 51.0334 65.4027 51.0334C67.4525 51.0334 68.8963 51.2128 69.733 51.5715C70.5702 51.913 70.9885 52.5792 70.9885 53.5701C70.9885 54.3556 70.8437 55.21 70.5529 56.1325C70.2627 57.0377 69.8355 57.4905 69.2718 57.4905C69.1353 57.4905 68.5543 57.3624 67.5294 57.1061C66.5045 56.8327 65.7358 56.6962 65.2233 56.6962C63.7544 56.6962 63.0197 57.9345 63.0197 60.4115C63.0197 61.6582 63.1907 62.5895 63.5322 63.2045C63.8741 63.8022 64.3009 64.1353 64.8133 64.2038V61.8977C64.8133 61.4705 65.2489 61.0777 66.1201 60.719C66.9913 60.3603 67.8285 60.1809 68.6312 60.1809C69.4344 60.1809 70.0148 60.2322 70.3736 60.3347C70.7495 60.4372 71.0058 60.582 71.1423 60.7703C71.3817 61.0777 71.501 61.3507 71.501 61.5902V68.6878C71.501 68.9096 71.0486 69.0889 70.143 69.2259C69.255 69.3624 68.3237 69.4309 67.35 69.4309C66.3936 69.4309 65.787 69.388 65.5308 69.3028C65.2746 69.2003 65.1297 68.9352 65.0952 68.5085L64.9158 66.9967H64.7108C64.5916 67.7309 64.2841 68.3631 63.7884 68.8928C63.3104 69.422 62.5757 69.6871 61.5848 69.6871ZM86.2811 69.4821H75.4169C74.5802 69.4821 74.0165 69.422 73.7258 69.3028C73.4355 69.183 73.2902 68.9953 73.2902 68.7391V52.5196C73.2902 52.0751 73.4868 51.7593 73.8795 51.5715C74.2895 51.3833 75.0158 51.2897 76.0575 51.2897H86.358C86.7167 51.2897 86.8961 51.8874 86.8961 53.0833C86.8961 54.262 86.8192 55.1672 86.6655 55.7994C86.5117 56.4143 86.3068 56.7218 86.0505 56.7218C84.9403 56.7218 83.0699 56.6104 80.439 56.3887V58.1054C82.9674 58.003 84.6156 57.9517 85.3843 57.9517C85.8455 57.9517 86.0761 58.4898 86.0761 59.566C86.0761 60.6421 85.9825 61.4621 85.7943 62.0258C85.6238 62.5723 85.3843 62.8457 85.0768 62.8457L80.439 62.7432V64.3831C83.4113 64.1609 85.4612 64.05 86.5886 64.05C86.9473 64.05 87.1267 64.6477 87.1267 65.8436C87.1267 67.0391 87.0498 67.9448 86.8961 68.5597C86.7423 69.1747 86.5374 69.4821 86.2811 69.4821ZM96.1042 68.7391C96.1042 68.9608 95.5828 69.1402 94.5412 69.2772C93.499 69.4136 92.4484 69.4821 91.3895 69.4821C90.3473 69.4821 89.6727 69.422 89.3653 69.3028C89.0745 69.183 88.9297 68.9953 88.9297 68.7391V52.2634C88.9297 51.8189 89.4845 51.503 90.5952 51.3153C91.7226 51.1271 93.1403 51.0334 94.8486 51.0334C96.5565 51.0334 97.6583 51.0418 98.154 51.0591C98.6665 51.0591 99.2642 51.0847 99.9477 51.1359C100.631 51.1872 101.169 51.2724 101.562 51.3922C101.972 51.5114 102.416 51.6652 102.894 51.8534C103.39 52.0411 103.774 52.289 104.047 52.5965C104.32 52.8867 104.585 53.237 104.842 53.647C105.303 54.3812 105.534 55.4318 105.534 56.7987C105.534 58.1478 105.303 59.2925 104.842 60.2322C104.397 61.1546 103.8 61.8548 103.048 62.3333C105.012 65.4248 105.995 67.3894 105.995 68.2266C105.995 69.0633 104.312 69.4821 100.947 69.4821C99.9733 69.4821 99.2982 69.4393 98.9227 69.354C98.5468 69.2683 98.3078 69.0806 98.2053 68.7903L96.5398 63.5119L96.1042 63.4863V68.7391ZM96.1042 59.5403H96.7704C97.7608 59.5403 98.2565 58.7717 98.2565 57.2343C98.2565 56.4483 98.1195 55.893 97.8465 55.5688C97.5903 55.244 97.2912 55.0819 96.9497 55.0819H96.1042V59.5403ZM3.17725 99.0474C2.32315 99.0474 1.75089 99.0045 1.4605 98.9192C1.1701 98.8168 1.0249 98.6541 1.0249 98.4324V82.4948C1.0249 82.1188 1.52028 81.7517 2.51105 81.393C3.50181 81.017 4.61215 80.8293 5.84206 80.8293C6.93533 80.8293 7.65278 81.0599 7.99441 81.5211C8.114 81.6916 8.17377 81.8626 8.17377 82.0336V93.3846C10.2578 93.2477 11.8294 93.1797 12.8884 93.1797C13.2472 93.1797 13.4265 93.7517 13.4265 94.8964C13.4265 96.0238 13.3497 96.9975 13.1959 97.8174C13.0422 98.6374 12.8372 99.0474 12.581 99.0474H3.17725ZM22.1627 97.7406C22.1285 98.2358 21.8637 98.5773 21.3683 98.7655C20.89 98.9533 20.0188 99.0474 18.7548 99.0474C17.4907 99.0474 16.4316 98.936 15.5775 98.7143C14.7405 98.4748 14.322 98.1762 14.322 97.8174C14.322 97.4075 15.0821 94.7939 16.6024 89.9768C18.1227 85.1423 18.9939 82.3578 19.216 81.6236C19.3014 81.4014 19.9847 81.222 21.2658 81.0855C22.5641 80.9318 23.9477 80.8549 25.4168 80.8549C26.9029 80.8549 27.7229 81.1111 27.8766 81.6236C31.1051 92.3508 32.7194 97.8002 32.7194 97.9712C32.7194 98.1417 32.6169 98.3127 32.4119 98.4837C31.9336 98.8591 30.9856 99.0474 29.5678 99.0474C26.5442 99.0474 24.9983 98.6886 24.93 97.9712L24.7506 96.3057H22.2908L22.1627 97.7406ZM24.2125 91.4373L23.8282 86.8251H23.2645L22.8289 91.4373H24.2125ZM18.9085 78.0363C18.9085 77.8481 19.532 77.4638 20.779 76.8833C22.0431 76.2851 22.974 75.9865 23.5719 75.9865C24.1869 75.9865 25.1007 76.2767 26.3136 76.8577C27.5264 77.4381 28.1329 77.8314 28.1329 78.0363C28.1329 78.6341 28.0389 79.1721 27.851 79.6506C27.6631 80.1118 27.4154 80.3424 27.1079 80.3424C26.8687 80.3424 25.673 80.0093 23.5207 79.3431C21.3512 80.0093 20.1555 80.3424 19.9334 80.3424C19.626 80.3424 19.3783 80.1118 19.1904 79.6506C19.0024 79.1721 18.9085 78.6341 18.9085 78.0363ZM41.2787 98.3043C41.2787 98.526 40.7492 98.7054 39.6901 98.8424C38.6481 98.9789 37.6061 99.0474 36.5641 99.0474C35.522 99.0474 34.8558 98.9872 34.5655 98.868C34.2751 98.7483 34.1299 98.5605 34.1299 98.3043V82.5717C34.1299 82.1444 34.6167 81.7517 35.5904 81.393C36.5812 81.0343 37.7 80.8549 38.947 80.8549C39.3911 80.8549 39.7242 80.8717 39.9463 80.9061C40.5271 80.9914 40.9371 81.3585 41.1762 82.0079L43.6361 88.6187H43.7386V82.5717C43.7386 82.1444 44.2254 81.7517 45.1991 81.393C46.1728 81.0343 47.2831 80.8549 48.5301 80.8549C49.6065 80.8549 50.2894 81.0599 50.5801 81.4699C50.7851 81.7601 50.8876 82.0247 50.8876 82.2642V98.3043C50.8876 98.526 50.3579 98.7054 49.299 98.8424C48.2568 98.9789 47.1037 99.0474 45.8397 99.0474C44.5926 99.0474 43.9094 98.8848 43.7898 98.5605L41.4068 92.2572H41.2787V98.3043ZM61.1206 99.0474H55.0736C54.2364 99.0474 53.6727 98.9872 53.3824 98.868C53.0922 98.7483 52.9468 98.5517 52.9468 98.2787V82.1104C52.9468 81.666 53.1346 81.3501 53.5106 81.1624C53.8865 80.9574 54.5355 80.8549 55.4579 80.8549H61.2231C64.5029 80.8549 66.7661 81.5039 68.0133 82.8023C69.2604 84.0834 69.8838 86.4235 69.8838 89.823C69.8838 93.222 69.2348 95.6139 67.9364 96.9975C66.638 98.3639 64.3664 99.0474 61.1206 99.0474ZM60.9157 84.6728C60.5057 84.6728 60.2322 84.7068 60.0957 84.7752V95.127L61.0694 95.2295C61.5819 95.2295 61.9662 94.8195 62.2224 93.9996C62.4959 93.1797 62.6324 91.7615 62.6324 89.7461C62.6324 87.7303 62.4959 86.3806 62.2224 85.6977C61.949 85.0142 61.5134 84.6728 60.9157 84.6728ZM78.8376 98.4324C78.8376 98.6201 78.3168 98.7739 77.2746 98.8936C76.2329 98.9961 75.1823 99.0474 74.1229 99.0474C73.0812 99.0474 72.415 99.0045 72.1243 98.9192C71.8341 98.8168 71.6887 98.6541 71.6887 98.4324V82.4948C71.6887 82.1188 72.1844 81.7517 73.1749 81.393C74.1658 81.017 75.276 80.8293 76.5059 80.8293C77.5993 80.8293 78.3168 81.0599 78.6582 81.5211C78.778 81.6916 78.8376 81.8626 78.8376 82.0336V98.4324ZM87.9693 97.7406C87.9348 98.2358 87.6702 98.5773 87.175 98.7655C86.6965 98.9533 85.8253 99.0474 84.5614 99.0474C83.297 99.0474 82.2381 98.936 81.3841 98.7143C80.547 98.4748 80.1286 98.1762 80.1286 97.8174C80.1286 97.4075 80.8884 94.7939 82.4091 89.9768C83.9292 85.1423 84.8004 82.3578 85.0226 81.6236C85.1079 81.4014 85.7913 81.222 87.0725 81.0855C88.3704 80.9318 89.7541 80.8549 91.2234 80.8549C92.7096 80.8549 93.5295 81.1111 93.6833 81.6236C96.9118 92.3508 98.5261 97.8002 98.5261 97.9712C98.5261 98.1417 98.4236 98.3127 98.2186 98.4837C97.7401 98.8591 96.7921 99.0474 95.3744 99.0474C92.3509 99.0474 90.8046 98.6886 90.7366 97.9712L90.5572 96.3057H88.0974L87.9693 97.7406ZM90.0192 91.4373L89.6348 86.8251H89.0711L88.6355 91.4373H90.0192Z" fill="#111111"/>
</svg>
